<?xml version="1.0" encoding="UTF-8" standalone="no"?>
<!-- Created with Inkscape (http://www.inkscape.org/) -->

<svg
   width="32"
   height="32"
   viewBox="0 0 8.4666666 8.4666666"
   version="1.1"
   id="svg1"
   inkscape:version="1.3.2 (091e20ef0f, 2023-11-25)"
   sodipodi:docname="icon.svg"
   xmlns:inkscape="http://www.inkscape.org/namespaces/inkscape"
   xmlns:sodipodi="http://sodipodi.sourceforge.net/DTD/sodipodi-0.dtd"
   xmlns="http://www.w3.org/2000/svg"
   xmlns:svg="http://www.w3.org/2000/svg">
  <sodipodi:namedview
     id="namedview1"
     pagecolor="#ffffff"
     bordercolor="#000000"
     borderopacity="0.25"
     inkscape:showpageshadow="2"
     inkscape:pageopacity="0.0"
     inkscape:pagecheckerboard="0"
     inkscape:deskcolor="#d1d1d1"
     inkscape:document-units="mm"
     inkscape:zoom="6.0153462"
     inkscape:cx="3.5741917"
     inkscape:cy="44.386473"
     inkscape:window-width="1908"
     inkscape:window-height="1030"
     inkscape:window-x="0"
     inkscape:window-y="0"
     inkscape:window-maximized="1"
     inkscape:current-layer="layer1" />
  <defs
     id="defs1" />
  <g
     inkscape:label="Layer 1"
     inkscape:groupmode="layer"
     id="layer1">
    <circle
       style="fill:#09090b;stroke-width:0.261986;fill-opacity:1"
       id="path1"
       cx="4.2333331"
       cy="4.2333331"
       r="4.2333331" />
    <path
       d="M 4.906431,4.0723413 C 4.8443977,4.3135818 4.765133,4.5755001 4.6686368,4.8580961 4.5721405,5.1406922 4.4653055,5.4198419 4.3481315,5.6955454 4.2378501,5.9781414 4.1275687,6.243506 4.0172873,6.4916391 H 3.3349213 C 3.3831694,6.2986467 3.4314175,6.0918691 3.4796656,5.8713063 3.5348063,5.6507436 3.5865007,5.4267345 3.6347488,5.1992792 3.6829969,4.9787164 3.7243524,4.7615999 3.7588153,4.5479297 3.8001709,4.3342596 3.8346338,4.1378208 3.8622041,3.9586136 H 4.8340588 Z M 3.7039561,2.642459 c 0,-0.2619183 0.062034,-0.4445718 0.1860999,-0.5479606 0.1240665,-0.1033888 0.2722571,-0.1550832 0.4445718,-0.1550832 0.1792073,0 0.3308442,0.051695 0.4549107,0.1550832 0.1309592,0.1033888 0.1964387,0.2860423 0.1964387,0.5479606 0,0.2481331 -0.065479,0.4273404 -0.1964387,0.5376217 C 4.665472,3.2903621 4.5138351,3.3455028 4.3346278,3.3455028 4.1623131,3.3455028 4.0141225,3.2903623 3.890056,3.1800807 3.7659894,3.0697994 3.7039561,2.8905921 3.7039561,2.642459 Z"
       id="text2"
       style="font-size:14.1111px;fill:#d3d3d3;fill-opacity:1;stroke-width:0.194159"
       aria-label=";"
       sodipodi:nodetypes="cscccccccccssscscsss" />
  </g>
</svg>
